<?xml version="1.0" encoding="UTF-8" standalone="no"?>
<!-- Created with Inkscape (http://www.inkscape.org/) -->

<svg
   xmlns:dc="http://purl.org/dc/elements/1.1/"
   xmlns:cc="http://creativecommons.org/ns#"
   xmlns:rdf="http://www.w3.org/1999/02/22-rdf-syntax-ns#"
   xmlns:svg="http://www.w3.org/2000/svg"
   xmlns="http://www.w3.org/2000/svg"
   xmlns:sodipodi="http://sodipodi.sourceforge.net/DTD/sodipodi-0.dtd"
   xmlns:inkscape="http://www.inkscape.org/namespaces/inkscape"
   id="svg4354"
   version="1.1"
   inkscape:version="0.47 r22583"
   width="1024"
   height="1024"
   sodipodi:docname="OracleERD.svg"
   inkscape:export-filename="/home/janik/Documents/Images/logos/OracleERD.png"
   inkscape:export-xdpi="2.8099999"
   inkscape:export-ydpi="2.8099999">
  <metadata
     id="metadata4360">
    <rdf:RDF>
      <cc:Work
         rdf:about="">
        <dc:format>image/svg+xml</dc:format>
        <dc:type
           rdf:resource="http://purl.org/dc/dcmitype/StillImage" />
        <dc:title></dc:title>
      </cc:Work>
    </rdf:RDF>
  </metadata>
  <defs
     id="defs4358">
    <inkscape:perspective
       sodipodi:type="inkscape:persp3d"
       inkscape:vp_x="0 : 0.5 : 1"
       inkscape:vp_y="0 : 1000 : 0"
       inkscape:vp_z="1 : 0.5 : 1"
       inkscape:persp3d-origin="0.5 : 0.33333333 : 1"
       id="perspective4362" />
    <inkscape:perspective
       id="perspective2908"
       inkscape:persp3d-origin="0.5 : 0.33333333 : 1"
       inkscape:vp_z="1 : 0.5 : 1"
       inkscape:vp_y="0 : 1000 : 0"
       inkscape:vp_x="0 : 0.5 : 1"
       sodipodi:type="inkscape:persp3d" />
  </defs>
  <sodipodi:namedview
     pagecolor="#ffffff"
     bordercolor="#666666"
     borderopacity="1"
     objecttolerance="10"
     gridtolerance="10"
     guidetolerance="10"
     inkscape:pageopacity="0"
     inkscape:pageshadow="2"
     inkscape:window-width="1280"
     inkscape:window-height="752"
     id="namedview4356"
     showgrid="false"
     inkscape:zoom="0.26696165"
     inkscape:cx="627.36435"
     inkscape:cy="547.00194"
     inkscape:window-x="0"
     inkscape:window-y="0"
     inkscape:window-maximized="0"
     inkscape:current-layer="svg4354" />
  <g
     id="g2922"
     transform="translate(1.5707509,180.95738)">
    <path
       id="path2828"
       d="m 273.98427,249.39097 c -11.75913,0.005 -25.16266,0.0417 -40.01653,0.11048 -106.40298,0.49248 -102.17146,0.22397 -123.95542,8.62235 -39.408802,15.1933 -68.673661,49.47814 -78.374905,91.86114 -2.972926,12.98853 -2.632218,40.82814 0.62641,53.90808 5.873335,23.57443 15.279503,41.31988 30.62038,57.66654 20.623471,21.97555 44.921035,34.92846 73.879495,39.42696 6.91226,1.07377 31.53219,1.53687 89.13441,1.6213 l 79.59088,0.11048 14.22319,-22.10857 14.22318,-22.10858 -95.58275,-0.58956 -95.58275,-0.58957 -9.13821,-3.24259 c -14.2608,-5.04707 -21.84098,-9.87725 -33.05232,-21.11369 -8.435218,-8.45414 -11.247606,-12.22759 -14.996985,-20.15565 -2.533938,-5.35796 -4.778341,-10.78899 -4.97443,-12.08603 -0.354091,-2.34183 0.390703,-2.34851 103.431295,-2.54248 l 103.76292,-0.22109 7.07475,-10.50157 c 9.8741,-14.68204 20.63467,-31.67703 20.63467,-32.57331 0,-0.41334 -53.09054,-0.73695 -117.98611,-0.73695 l -118.022954,0 0.773801,-2.65303 c 0.406444,-1.45917 2.874468,-7.156 5.527144,-12.63874 3.876017,-8.01141 6.847115,-11.95255 14.996979,-20.1188 10.99062,-11.01283 18.63494,-15.86836 32.83124,-20.89261 l 9.13821,-3.24259 79.59088,-0.40532 79.59088,-0.36848 13.55993,-21.26108 c 7.45796,-11.70116 13.73744,-21.79516 13.96525,-22.40336 0.19252,-0.51372 -20.21514,-0.78687 -55.49253,-0.7738 z m 87.69736,0 0,126.82954 0,126.79269 24.17204,0 24.17205,0 0,-104.38933 0,-104.38934 85.78128,0.33163 85.78128,0.33163 6.66942,3.27944 c 8.77299,4.30825 15.81869,11.30017 19.67664,19.52924 2.69495,5.74835 3.13205,8.21492 3.13205,17.8711 0,10.05429 -0.35672,11.88666 -3.46368,18.01849 -4.21656,8.32171 -11.55939,15.344 -20.48728,19.52925 l -6.70627,3.13205 -72.81092,0.33162 -72.84776,0.36848 8.5855,7.51692 c 4.70982,4.14151 37.20136,32.49132 72.22135,63.00944 l 63.67271,55.49253 35.37372,-0.0368 35.37372,0 -3.0952,-2.32141 c -2.57796,-1.92567 -67.25411,-56.03699 -86.40769,-72.29504 -3.17911,-2.69851 -6.23009,-5.08989 -6.77996,-5.30606 -0.54988,-0.21618 -0.99489,-0.87944 -0.99489,-1.47391 0,-0.60191 7.093,-1.06858 15.99187,-1.06858 19.21835,0 29.23845,-1.95565 42.37478,-8.29072 22.88387,-11.03594 39.63597,-31.56443 46.17008,-56.56111 2.69647,-10.31573 2.65312,-30.97577 -0.0737,-41.26934 -6.35879,-24.00404 -23.98947,-45.45085 -46.02269,-55.97155 -18.11724,-8.65086 -9.79111,-8.14761 -135.96775,-8.5855 L 361.68163,249.391 z m 395.04338,0 c -7.90012,-0.001 -15.46892,0.0316 -22.477,0.0737 l -47.16496,-0.0368 0,209.33139 0,44.06976 47.16496,0 60.13528,-0.14739 c 43.77498,-0.0674 80.91739,-0.28368 82.53869,-0.51586 12.90881,-1.84867 20.69929,-3.51025 28.29898,-6.04302 43.59587,-14.52932 75.50026,-51.10119 84.41798,-96.79872 2.17831,-11.16256 2.15319,-35.23867 -0.0366,-46.68595 -6.85071,-35.80628 -30.47894,-68.82673 -61.8302,-86.44454 -9.3593,-5.25937 -26.40566,-11.70989 -37.28992,-14.14949 -7.0435,-1.57875 -78.45562,-2.64113 -133.7569,-2.65303 z m -22.477,44.76987 64.70438,0.29478 79.73827,0.36847 7.66431,2.76358 c 38.16224,13.73395 59.70059,45.09927 57.44551,83.64412 -2.08021,35.55518 -27.01538,65.66688 -61.71983,74.54275 -8.65006,2.21233 -13.42457,2.3214 -102.03103,2.3214 -16.98988,0 -32.05844,0.0171 -45.80161,0.0737 l 0,-164.0088 z"
       style="fill:#e00024;fill-opacity:1" />
    <path
       id="path4366"
       d="m 54.390115,216.74149 c -11.41905,-1.48461 -21.067718,-10.02846 -24.077206,-21.32025 -0.613047,-2.30021 -0.699245,-3.15145 -0.712173,-7.03319 -0.01221,-3.66741 0.0828,-4.80207 0.560321,-6.69132 2.75143,-10.88579 10.701183,-18.7321 21.753355,-21.47031 2.179588,-0.54 3.059207,-0.5682 20.963213,-0.67219 18.854957,-0.1095 22.475579,0.0108 25.674709,0.85332 10.782456,2.83956 18.862676,11.3098 21.087246,22.10509 0.75055,3.64219 0.64778,9.3815 -0.22741,12.70055 -3.08461,11.69795 -12.59583,20.09339 -24.398642,21.53641 -2.683449,0.32807 -38.092002,0.32103 -40.623413,-0.008 z m 40.949393,-10.4032 c 8.720022,-2.23022 14.590552,-10.23336 14.043622,-19.14529 -0.42384,-6.90605 -4.28077,-12.65959 -10.495657,-15.65677 -3.92447,-1.89261 -3.812599,-1.88389 -24.165683,-1.88389 -17.205895,0 -18.281265,0.028 -20.23415,0.5275 -5.589784,1.42963 -9.892024,4.93124 -12.341486,10.0448 -1.492319,3.11539 -1.857098,4.72482 -1.850224,8.16341 0.0043,2.15144 0.149055,3.28099 0.617408,4.81775 2.205234,7.23575 7.369184,11.91207 14.88204,13.47669 0.294418,0.0613 8.856768,0.12547 19.027445,0.14255 17.465441,0.0293 18.604544,0.003 20.516685,-0.48675 z m 30.982372,-18.09419 0,-28.78275 25.76158,0.0894 c 28.64119,0.0994 26.75083,-0.0197 30.86331,1.94401 5.00138,2.38813 9.00698,7.25893 10.45038,12.70768 0.61897,2.33657 0.62586,7.02624 0.0138,9.36786 -1.4832,5.67405 -5.28601,10.33193 -10.48048,12.837 -2.98185,1.43802 -5.25901,1.8839 -9.62144,1.8839 -2.01998,0 -3.62739,0.10872 -3.62739,0.24533 0,0.13495 0.10213,0.2855 0.22694,0.33456 0.12482,0.0491 0.81737,0.59039 1.53901,1.20294 4.34772,3.69045 19.02954,15.97539 19.61472,16.4125 l 0.70069,0.52339 -8.02959,0.005 -8.02958,0.005 -14.45325,-12.59525 c -7.94928,-6.92725 -15.32796,-13.36427 -16.39706,-14.30438 l -1.9438,-1.70925 16.53088,-0.0784 16.53089,-0.0784 1.51897,-0.71209 c 2.02656,-0.95 3.69713,-2.53954 4.65426,-4.42853 0.70526,-1.39187 0.78574,-1.81115 0.78574,-4.0934 0,-2.19189 -0.0979,-2.75155 -0.70965,-4.05639 -0.87572,-1.86794 -2.47544,-3.4558 -4.46685,-4.43374 l -1.51482,-0.7439 -19.47174,-0.0737 -19.47174,-0.0737 0,23.694 0,23.69405 -5.48688,0 -5.48688,0 0,-28.78279 z m 68.25145,28.67471 c 0,-0.0594 1.223,-2.01665 2.71778,-4.34935 1.49478,-2.3327 4.90763,-7.67393 7.58411,-11.86939 2.67648,-4.19545 7.37121,-11.54252 10.43274,-16.32682 7.64438,-11.94599 8.53339,-13.34083 12.00824,-18.84073 1.15313,-1.82515 2.47801,-3.71126 2.94418,-4.19134 2.92302,-3.01029 8.64567,-3.02847 11.47356,-0.0364 0.51315,0.54294 2.11806,2.85404 3.56646,5.13578 1.4484,2.28174 3.25422,5.11217 4.01293,6.28984 0.75872,1.17767 2.76595,4.30922 4.46052,6.95898 13.30681,20.80768 18.20129,28.45393 20.78781,32.47501 1.64122,2.5515 2.98403,4.69152 2.98403,4.7556 0,0.064 -2.90306,0.0842 -6.45123,0.0448 l -6.45124,-0.0716 -2.99433,-4.95158 -2.99434,-4.95158 -15.0251,-0.13382 -15.0251,-0.13383 -3.1862,-4.95158 -3.1862,-4.95157 14.68173,-0.13383 14.68171,-0.13382 -3.90846,-6.28984 c -9.93765,-15.99256 -11.50565,-18.4628 -11.67996,-18.40066 -0.10251,0.0365 -0.8732,1.15042 -1.71265,2.4753 -0.83945,1.32489 -2.59847,4.0951 -3.90894,6.15603 -1.31046,2.06093 -2.52709,3.97727 -2.70361,4.25854 -0.40585,0.64668 -4.34516,6.90919 -13.27351,21.10156 l -7.02983,11.1745 -6.40255,0 c -3.5214,0 -6.40255,-0.0486 -6.40255,-0.10808 z m 103.58163,-0.0606 c -2.93021,-0.41965 -4.69859,-0.79744 -6.42367,-1.37236 -9.89592,-3.29804 -17.13111,-11.59597 -19.15537,-21.96899 -0.49446,-2.53382 -0.4916,-7.995 0.006,-10.59346 1.55509,-8.12777 6.9151,-15.62354 14.03161,-19.62265 2.12447,-1.19384 5.99321,-2.6652 8.46385,-3.21897 2.65284,-0.59461 45.54084,-0.84463 45.18778,-0.26343 -0.12216,0.20112 -1.58916,2.49133 -3.25998,5.08934 l -3.03783,4.72366 -18.10673,0.082 -18.10671,0.082 -1.73792,0.62545 c -8.6625,3.11751 -13.55303,10.23792 -13.04114,18.9873 0.47219,8.07078 6.13144,14.90647 14.00908,16.92122 1.96352,0.50217 3.04878,0.52688 23.1618,0.52688 11.60596,0 21.10174,0.0668 21.10174,0.14849 0,0.0817 -0.51009,0.89468 -1.13353,1.80666 -0.62345,0.91197 -1.316,1.97543 -1.53901,2.36324 -0.223,0.3878 -1.12813,1.85935 -2.01138,3.2701 l -1.60592,2.56502 -18.06656,-0.0278 c -9.9366,-0.0153 -18.36766,-0.0709 -18.73568,-0.12363 z m 52.36186,-0.10711 c -1.33181,-0.39899 -2.80762,-1.61689 -3.372,-2.78273 -0.53669,-1.10865 -0.54472,-1.51858 -0.54472,-27.80602 l 0,-26.68076 5.35305,0 5.35306,0 0,23.68728 0,23.68727 25.83671,0 25.83673,0 -0.99406,1.539 c -0.54671,0.84645 -2.00812,3.13488 -3.24757,5.0854 l -2.25352,3.5464 -25.60024,-0.023 c -14.08012,-0.0126 -25.94549,-0.12644 -26.36744,-0.25285 z m 80.50064,-0.11397 c -6.57337,-1.02112 -12.0865,-3.96484 -16.76789,-8.95314 -3.48227,-3.71058 -5.61987,-7.73316 -6.95308,-13.08437 -0.73968,-2.96907 -0.80901,-9.29462 -0.13417,-12.24292 2.20211,-9.62064 8.84001,-17.40287 17.78552,-20.85164 4.94481,-1.90637 3.98554,-1.83984 28.13826,-1.95163 13.48689,-0.0624 21.73814,-0.005 21.67987,0.15024 -0.0517,0.13806 -1.47913,2.42417 -3.17203,5.08025 l -3.07801,4.82923 -18.06656,0.0865 -18.06656,0.0865 -2.07605,0.73473 c -3.22246,1.14047 -4.95768,2.24531 -7.45247,4.74514 -1.84996,1.85369 -2.51687,2.75081 -3.3967,4.56935 -0.60214,1.24453 -1.17029,2.53381 -1.26255,2.86503 l -0.16773,0.60222 26.78331,0 c 14.73083,0 26.78332,0.0768 26.78332,0.17058 0,0.20344 -2.44257,4.05711 -4.68392,7.38984 l -1.60592,2.38786 -23.55344,0.0444 c -23.38948,0.044 -23.55289,0.0481 -23.47251,0.57966 0.0445,0.29442 0.55153,1.53038 1.12671,2.7466 0.85108,1.79961 1.48381,2.65032 3.39855,4.56934 2.54489,2.5506 4.26625,3.651 7.50335,4.79663 l 2.07605,0.73476 21.69799,0.13383 21.69797,0.13382 -3.22714,5.01849 -3.22715,5.01849 -18.06937,-0.0265 c -13.07529,-0.0193 -18.66862,-0.11958 -20.23765,-0.36333 z m 52.77896,-44.98054 c -1.66106,-0.63465 -2.73734,-1.61817 -3.51889,-3.21561 -0.62467,-1.27678 -0.70708,-1.71701 -0.5913,-3.15923 0.29357,-3.65723 2.72658,-5.92009 6.36096,-5.9161 3.67926,0.004 6.26596,2.58863 6.27705,6.27195 0.0104,3.4667 -2.41544,6.11314 -5.79027,6.31673 -1.08493,0.0655 -2.06631,-0.0413 -2.73755,-0.29774 z m 5.12391,-1.90267 c 1.22112,-0.97136 2.21438,-2.81984 2.20637,-4.10612 -0.012,-1.94189 -1.52104,-4.07455 -3.40979,-4.81902 -1.25978,-0.49657 -3.32499,-0.22453 -4.5749,0.60262 -3.09482,2.04805 -2.7852,7.04243 0.54135,8.73241 1.68359,0.85532 3.8607,0.68492 5.23697,-0.40989 z m -5.28202,-4.25015 0,-3.61331 1.76033,0 c 1.6042,0 1.83251,0.0722 2.57402,0.81368 0.68099,0.68097 0.78663,0.95381 0.64774,1.67283 -0.0913,0.47253 -0.41135,1.06308 -0.71131,1.31233 -0.54467,0.45261 -0.5443,0.45511 0.29399,1.94049 l 0.83938,1.4873 -0.77258,0 c -0.66768,0 -0.8738,-0.19988 -1.51799,-1.47209 -0.51445,-1.016 -0.90493,-1.47209 -1.26035,-1.47209 -0.44577,0 -0.51496,0.19781 -0.51496,1.47209 0,1.39179 -0.0365,1.47209 -0.66913,1.47209 l -0.66914,0 0,-3.61332 z m 3.47949,-0.93678 c 0.46237,-0.86397 -0.0984,-1.60592 -1.21386,-1.60592 -0.90349,0 -0.92736,0.0276 -0.92736,1.07061 0,1.04305 0.0238,1.07061 0.92736,1.07061 0.65345,0 1.012,-0.15812 1.21386,-0.5353 z"
       style="fill:#e00024;fill-opacity:1" />
  </g>
</svg>
